<svg id="Слой_1" data-name="Слой 1" xmlns="http://www.w3.org/2000/svg" viewBox="0 0 1943.4 113.69"><defs><style>.cls-1{fill:#fff;}</style></defs><title>detoxionis-main</title><g id="Слой_1-2" data-name="Слой 1-2"><path class="cls-1" d="M11.68,102Q0,90.32,0,67.9V11.68A9.94,9.94,0,0,1,2.65,4.44,9.51,9.51,0,0,1,9.81,1.71,9.54,9.54,0,0,1,17,4.44a10,10,0,0,1,2.64,7.24V69q0,14.18,6.7,21.41T46,97.66q12.76,0,19.47-7.32T72.11,69V11.68a10,10,0,0,1,2.64-7.24,9.48,9.48,0,0,1,7.17-2.73,9.55,9.55,0,0,1,7.16,2.73,9.94,9.94,0,0,1,2.65,7.24V67.9q0,22.27-11.68,34T45.94,113.69Q23.37,113.69,11.68,102Zm104.11,8.8a8.74,8.74,0,0,1-2.73-6.93v-93c0-3,.91-5.3,2.73-6.85a10.21,10.21,0,0,1,6.93-2.34,10.59,10.59,0,0,1,7,2.34c1.86,1.56,2.8,3.84,2.8,6.85v93a8.69,8.69,0,0,1-2.8,6.93,10.44,10.44,0,0,1-7,2.41,10.09,10.09,0,0,1-6.93-2.4ZM200,105.74a6.33,6.33,0,0,1-3,5.69q-3,1.95-8.65,1.63l-4.2-.31Q158,110.89,158,84.75v-34H150.2c-2.81,0-5-.62-6.47-1.87a6.65,6.65,0,0,1-2.25-5.45A6.68,6.68,0,0,1,143.66,38c1.51-1.25,3.66-1.87,6.47-1.87h7.78V21.8a8.75,8.75,0,0,1,2.65-6.69,10,10,0,0,1,7.17-2.5,9.79,9.79,0,0,1,7,2.5,8.75,8.75,0,0,1,2.65,6.69V36.13h13.24c2.8,0,5,.62,6.46,1.87a6.66,6.66,0,0,1,2.26,5.45,6.64,6.64,0,0,1-2.26,5.45c-1.5,1.25-3.66,1.87-6.46,1.87H177.38V86.12q0,11.53,10.59,12.31l4.21.31Q200,99.21,200,105.74Zm59-69.45c1.56,1.33,2.34,3.36,2.34,6.07s-.68,4.88-2,6.23-3.8,2.23-7.32,2.65l-4.68.46q-9.18.94-13.47,6.23a20.42,20.42,0,0,0-4.28,13.24v32.71a8.61,8.61,0,0,1-2.8,6.93,10.44,10.44,0,0,1-7,2.41,10.14,10.14,0,0,1-6.93-2.41,8.74,8.74,0,0,1-2.73-6.93V43.61a8.34,8.34,0,0,1,2.73-6.7,10,10,0,0,1,6.77-2.34,9.36,9.36,0,0,1,6.54,2.26,8.29,8.29,0,0,1,2.5,6.46v6.23a23.11,23.11,0,0,1,8.8-10.59,27,27,0,0,1,13-4.2l2.18-.16A8.38,8.38,0,0,1,259,36.29Zm67,5.84Q333.74,50,333.74,66v38a8.8,8.8,0,0,1-2.49,6.62,9.44,9.44,0,0,1-6.86,2.41,9.12,9.12,0,0,1-6.62-2.49A8.7,8.7,0,0,1,315.2,104v-3.4a20.26,20.26,0,0,1-8.33,9.5,24.91,24.91,0,0,1-13.16,3.43,30.65,30.65,0,0,1-13.86-3.11,24.7,24.7,0,0,1-9.81-8.57,21.58,21.58,0,0,1-3.58-12.15q0-8.4,4.28-13.23t13.94-7q9.66-2.18,26.63-2.18h3.89V63.7q0-7.64-3.27-11.14t-10.59-3.5a33.51,33.51,0,0,0-9.18,1.32q-4.68,1.32-11.06,3.82-4.05,2-5.92,2a5.84,5.84,0,0,1-4.59-2,7.69,7.69,0,0,1-1.79-5.3,8,8,0,0,1,1.32-4.59,12.5,12.5,0,0,1,4.44-3.66,50.88,50.88,0,0,1,13-4.67,66.46,66.46,0,0,1,14.87-1.72Q318.31,34.26,326,42.13ZM310.3,94.3q4.9-5.22,4.9-13.47V77.56h-2.8a107,107,0,0,0-16.2.93q-5.76.93-8.25,3.27a8.35,8.35,0,0,0-2.49,6.39,10.57,10.57,0,0,0,3.5,8.17,12.36,12.36,0,0,0,8.65,3.2A16.61,16.61,0,0,0,310.3,94.3Zm102.47,16.19q-10.66-3.18-17.36-8.64a9.47,9.47,0,0,1-1.64-13.16,5.76,5.76,0,0,1,4.6-2.41,12.71,12.71,0,0,1,6.38,2.18,46.8,46.8,0,0,0,14,7A56.88,56.88,0,0,0,435,97.65q11.37,0,17.45-4A13,13,0,0,0,458.52,82q0-5.91-5.68-9.11t-18.93-6.15A112.2,112.2,0,0,1,411.6,60Q403,56.1,398.68,50t-4.36-15.42a29,29,0,0,1,5.45-17.28A35.9,35.9,0,0,1,415,5.37a53.92,53.92,0,0,1,21.88-4.28q22.28,0,36.29,11.84A11.5,11.5,0,0,1,476,16.27a8.92,8.92,0,0,1,.86,4.13,8.78,8.78,0,0,1-1.95,5.69,5.74,5.74,0,0,1-4.59,2.41,8.57,8.57,0,0,1-2.88-.47,22.77,22.77,0,0,1-3.51-1.71,52.45,52.45,0,0,0-12.38-6.93,42.08,42.08,0,0,0-14.72-2.26q-10.59,0-16.74,4.28a13.74,13.74,0,0,0-6.15,11.92,10.9,10.9,0,0,0,5.45,9.81q5.44,3.42,18.53,6.38a125.71,125.71,0,0,1,22.51,6.93q8.64,3.82,13.23,9.74T478.26,81a28.25,28.25,0,0,1-5.37,17,35.08,35.08,0,0,1-15.11,11.52,56.85,56.85,0,0,1-22.35,4.13A78.61,78.61,0,0,1,412.77,110.49Zm85,.32a8.76,8.76,0,0,1-2.72-6.93v-93c0-3,.9-5.29,2.72-6.85a10.27,10.27,0,0,1,6.93-2.34,10.59,10.59,0,0,1,7,2.34c1.87,1.56,2.81,3.84,2.8,6.85v93a8.61,8.61,0,0,1-2.8,6.93,10.44,10.44,0,0,1-7,2.41,10.17,10.17,0,0,1-6.9-2.41Zm38.08-93a9.79,9.79,0,0,1-3.12-7.55,9.56,9.56,0,0,1,3.12-7.48A12.39,12.39,0,0,1,544.29,0a12.14,12.14,0,0,1,8.33,2.8,9.42,9.42,0,0,1,3.19,7.48,9.83,9.83,0,0,1-3.11,7.55,13.72,13.72,0,0,1-16.82,0Zm1.48,93a8.74,8.74,0,0,1-2.73-6.93V43.76q0-4.51,2.73-6.85a10.21,10.21,0,0,1,6.93-2.34,10.59,10.59,0,0,1,7,2.34c1.86,1.56,2.8,3.84,2.8,6.85v60.12a8.69,8.69,0,0,1-2.8,6.93,10.44,10.44,0,0,1-7,2.41,10.07,10.07,0,0,1-6.9-2.41ZM683.75,41.66q6.62,7.4,6.62,23.9v38.32a8.74,8.74,0,0,1-2.73,6.93,10.33,10.33,0,0,1-7.08,2.41,10,10,0,0,1-6.93-2.41,8.74,8.74,0,0,1-2.73-6.93V65.56q0-8.55-3-12.22t-9.26-3.66q-7.64,0-12.15,5.22T642,69.15v34.73a8.79,8.79,0,0,1-2.72,6.93,10.14,10.14,0,0,1-6.93,2.41,10.44,10.44,0,0,1-7-2.41,8.61,8.61,0,0,1-2.8-6.93V65.56q0-8.55-3-12.22c-2-2.44-5.12-3.66-9.27-3.66q-7.62,0-12.07,5.22t-4.43,14.25v34.73a8.64,8.64,0,0,1-2.81,6.93,10.44,10.44,0,0,1-7,2.41,10.14,10.14,0,0,1-6.93-2.41,8.79,8.79,0,0,1-2.72-6.93V43.61a8.22,8.22,0,0,1,2.8-6.7,10.59,10.59,0,0,1,7-2.34,9.69,9.69,0,0,1,6.62,2.26,8.14,8.14,0,0,1,2.57,6.46V47a24.44,24.44,0,0,1,9.58-9.5,28.24,28.24,0,0,1,13.78-3.27q17.13,0,22.89,14.33a25.66,25.66,0,0,1,10.12-10.43,29.5,29.5,0,0,1,15.11-3.9Q677.14,34.26,683.75,41.66Zm73,68.83A10,10,0,0,1,754,103.1V12a9.36,9.36,0,0,1,2.57-7,9.78,9.78,0,0,1,7.09-2.49H802q17.6,0,27.41,8.8T839.25,36q0,15.87-9.81,24.76T802,69.61H774.15V103.1a9.39,9.39,0,0,1-8.62,10.12,12.93,12.93,0,0,1-8.74-2.73ZM799.54,54.2q20.7,0,20.71-18.07T799.54,18.07H774.15V54.2ZM902.48,36.29c1.55,1.33,2.32,3.36,2.33,6.07s-.67,4.88-2,6.23-3.77,2.24-7.32,2.65l-4.67.46q-9.2.94-13.48,6.23A20.44,20.44,0,0,0,873,71.17v32.71a8.61,8.61,0,0,1-2.8,6.93,10.44,10.44,0,0,1-7,2.41,10.14,10.14,0,0,1-6.93-2.41,8.76,8.76,0,0,1-2.72-6.93V43.61a8.33,8.33,0,0,1,2.72-6.7A10,10,0,0,1,863,34.57a9.4,9.4,0,0,1,6.55,2.26,8.31,8.31,0,0,1,2.49,6.46v6.23a23.11,23.11,0,0,1,8.8-10.59,27,27,0,0,1,13-4.2l2.18-.16A8.41,8.41,0,0,1,902.48,36.29Zm73.74,57.15a8.44,8.44,0,0,1,1.63,5.45q0,4.83-5.76,8.1a52.38,52.38,0,0,1-12,4.75,49.63,49.63,0,0,1-12.77,1.79q-18.37,0-29.12-10.59T907.46,74a44.45,44.45,0,0,1,4.67-20.72,34,34,0,0,1,13.16-14,37.19,37.19,0,0,1,19.23-5,34.46,34.46,0,0,1,17.91,4.52,30.64,30.64,0,0,1,11.84,12.77A42.39,42.39,0,0,1,978.48,71q0,6.69-5.92,6.69H926.62q.93,10.75,6.07,15.81t14.95,5.06a28.51,28.51,0,0,0,8.8-1.24,89.21,89.21,0,0,0,8.64-3.43q4.68-2.49,6.85-2.49A5.24,5.24,0,0,1,976.22,93.44ZM932.3,53q-4.75,5-5.68,14.33h35.19q-.31-9.49-4.67-14.41T945,48Q937.07,48,932.3,53Zm171.62-11.29q6.61,7.4,6.62,23.9v38.32a8.74,8.74,0,0,1-2.73,6.93,10.33,10.33,0,0,1-7.08,2.41,10,10,0,0,1-6.93-2.41,8.74,8.74,0,0,1-2.73-6.93V65.56q0-8.55-3-12.22t-9.26-3.66q-7.63,0-12.15,5.22t-4.52,14.25v34.73a8.79,8.79,0,0,1-2.72,6.93,10.14,10.14,0,0,1-6.93,2.41,10.44,10.44,0,0,1-7-2.41,8.61,8.61,0,0,1-2.8-6.93V65.56q0-8.55-3-12.22t-9.27-3.66q-7.62,0-12.07,5.22t-4.43,14.25v34.73a8.64,8.64,0,0,1-2.81,6.93,10.44,10.44,0,0,1-7,2.41,10.14,10.14,0,0,1-6.93-2.41,8.79,8.79,0,0,1-2.72-6.93V43.61a8.22,8.22,0,0,1,2.8-6.7,10.59,10.59,0,0,1,7-2.34,9.69,9.69,0,0,1,6.62,2.26,8.14,8.14,0,0,1,2.57,6.46V47a24.44,24.44,0,0,1,9.58-9.5,28.24,28.24,0,0,1,13.78-3.27q17.13,0,22.89,14.33a25.69,25.69,0,0,1,10.13-10.43,29.49,29.49,0,0,1,15.1-3.9q12.38,0,19,7.43Zm27.64-23.83a9.78,9.78,0,0,1-3.11-7.55,9.55,9.55,0,0,1,3.11-7.48,13.92,13.92,0,0,1,16.74,0,9.42,9.42,0,0,1,3.19,7.48,9.78,9.78,0,0,1-3.11,7.55A13.72,13.72,0,0,1,1131.56,17.88Zm1.48,93a8.74,8.74,0,0,1-2.73-6.93V43.76q0-4.51,2.73-6.85a10.21,10.21,0,0,1,6.93-2.34,10.59,10.59,0,0,1,7,2.34q2.8,2.34,2.8,6.85v60.12a8.61,8.61,0,0,1-2.8,6.93,10.44,10.44,0,0,1-7,2.41,10.15,10.15,0,0,1-7-2.41Zm104.11-73.74a8.78,8.78,0,0,1,2.65,6.69v60.43a8.39,8.39,0,0,1-2.73,6.54,10.09,10.09,0,0,1-7.08,2.49,9.36,9.36,0,0,1-6.7-2.34,8.28,8.28,0,0,1-2.49-6.38v-3.9a24.78,24.78,0,0,1-9.66,9.58,28,28,0,0,1-13.7,3.35q-28,0-28-31.46V43.76a8.75,8.75,0,0,1,2.65-6.69,9.85,9.85,0,0,1,7-2.5,10,10,0,0,1,7.16,2.5,8.75,8.75,0,0,1,2.65,6.69V82.23q0,8.1,3.27,12t10.28,3.89q8.1,0,13-5.37t4.91-14.25V43.76a8.75,8.75,0,0,1,2.65-6.69,9.8,9.8,0,0,1,7-2.5,10,10,0,0,1,7.14,2.5Zm132.45,4.59q6.62,7.4,6.62,23.9V104a8.74,8.74,0,0,1-2.73,6.93,10.33,10.33,0,0,1-7.08,2.41,10.14,10.14,0,0,1-6.93-2.41,8.74,8.74,0,0,1-2.73-6.93V65.56q0-8.55-3-12.22t-9.27-3.66q-7.63,0-12.15,5.22t-4.51,14.25v34.73a8.74,8.74,0,0,1-2.73,6.93,10.14,10.14,0,0,1-6.93,2.41,10.44,10.44,0,0,1-7-2.41,8.61,8.61,0,0,1-2.8-6.93V65.56q0-8.55-3-12.22T1296,49.68q-7.63,0-12.07,5.22t-4.44,14.25v34.73a8.64,8.64,0,0,1-2.81,6.93,10.34,10.34,0,0,1-7,2.41,10,10,0,0,1-6.93-2.41,8.74,8.74,0,0,1-2.73-6.93V43.61a8.25,8.25,0,0,1,2.8-6.7,10.59,10.59,0,0,1,7-2.34,9.69,9.69,0,0,1,6.62,2.26,8.14,8.14,0,0,1,2.57,6.46V47a24.44,24.44,0,0,1,9.58-9.5,28.24,28.24,0,0,1,13.78-3.27q17.13,0,22.89,14.33a25.69,25.69,0,0,1,10.13-10.43,29.49,29.49,0,0,1,15.1-3.9q12.51,0,19.11,7.43Zm72.88,68.13a9.27,9.27,0,0,1-2.57-7V12a9.36,9.36,0,0,1,2.57-7,9.78,9.78,0,0,1,7.09-2.49h30.83q27,0,41.82,14.41t14.87,40.41q0,26.16-14.87,40.57t-41.82,14.41h-30.83a9.73,9.73,0,0,1-7.09-2.52ZM1479.16,96Q1517,96,1517,57.38q0-38.46-37.84-38.47H1460v77Zm80.75,13.86a9.27,9.27,0,0,1-2.57-7V12a9.27,9.27,0,0,1,2.57-7A9.74,9.74,0,0,1,1567,2.49h56.22a10.86,10.86,0,0,1,7,2,7,7,0,0,1,2.49,5.76,7.4,7.4,0,0,1-2.49,6q-2.49,2.12-7,2.11H1577V48.59h43.14a10.88,10.88,0,0,1,7,2,7.19,7.19,0,0,1,2.49,5.92,7,7,0,0,1-2.49,5.76c-1.66,1.36-4,2-7,2H1577V96.4h46.25q4.51,0,7,2.1a7.4,7.4,0,0,1,2.49,6,7,7,0,0,1-2.49,5.76,10.86,10.86,0,0,1-7,2H1567a9.72,9.72,0,0,1-7.09-2.47Zm117.89.55a9.78,9.78,0,0,1-2.73-7.24V19h-28.34q-9.35,0-9.35-8.25t9.35-8.26h76.77q9.35,0,9.35,8.26T1723.5,19h-28.34v84.1a9.36,9.36,0,0,1-8.67,10,9.84,9.84,0,0,1-1.33,0,10,10,0,0,1-7.36-2.76Zm81.45-3.51a45.74,45.74,0,0,1-18.15-19.62q-6.39-12.77-6.38-29.9T1741,27.49a45.32,45.32,0,0,1,18.14-19.55Q1771,1.1,1787.05,1.09t27.79,6.85a45.51,45.51,0,0,1,18.07,19.55q6.3,12.69,6.31,29.82t-6.39,29.9a45.78,45.78,0,0,1-18.14,19.62q-11.76,6.86-27.64,6.86-16,0-27.8-6.86Zm51.39-19.62q8.49-10.43,8.49-29.9t-8.49-29.82q-8.49-10.36-23.59-10.36-15.27,0-23.75,10.36t-8.49,29.82q0,19.47,8.49,29.9t23.75,10.44q15.1-.07,23.59-10.51ZM1943.4,104a8.84,8.84,0,0,1-2.88,6.54,9.24,9.24,0,0,1-6.62,2.8,8.8,8.8,0,0,1-6.85-3.43l-31.61-39.24-31.77,39.24a8.55,8.55,0,0,1-6.7,3.27,9.34,9.34,0,0,1-6.62-2.72,8.6,8.6,0,0,1-2.88-6.46,9.08,9.08,0,0,1,2.34-5.92l34-41.43-32.55-39.71a8.36,8.36,0,0,1-2.34-5.92,8.75,8.75,0,0,1,2.8-6.46,9.11,9.11,0,0,1,6.55-2.73,8.89,8.89,0,0,1,6.85,3.43l30.37,37.53,30.37-37.53a8.42,8.42,0,0,1,6.69-3.43,9.39,9.39,0,0,1,6.62,2.73A8.63,8.63,0,0,1,1942,10.9a8.41,8.41,0,0,1-2.33,5.92l-32.55,39.71L1940.91,98a9.18,9.18,0,0,1,2.49,5.88Z"/></g></svg>